Coordinates
version=1
nRows=20
nColumns=63
inDegrees=yes

Units are S.I. units (second, meters, Newtons, ...)
If the header above contains a line with 'inDegrees', this indicates whether rotational values are in degrees (yes) or radians (no).

endheader
time	pelvis_tilt	pelvis_list	pelvis_rotation	pelvis_tx	pelvis_ty	pelvis_tz	hip_flexion_r	hip_adduction_r	hip_rotation_r	knee_angle_r	knee_angle_r_beta	ankle_angle_r	subtalar_angle_r	mtp_angle_r	hip_flexion_l	hip_adduction_l	hip_rotation_l	knee_angle_l	knee_angle_l_beta	ankle_angle_l	subtalar_angle_l	mtp_angle_l	L5_S1_Flex_Ext	L5_S1_Lat_Bending	L5_S1_axial_rotation	L4_L5_Flex_Ext	L4_L5_Lat_Bending	L4_L5_axial_rotation	L3_L4_Flex_Ext	L3_L4_Lat_Bending	L3_L4_axial_rotation	L2_L3_Flex_Ext	L2_L3_Lat_Bending	L2_L3_axial_rotation	L1_L2_Flex_Ext	L1_L2_Lat_Bending	L1_L2_axial_rotation	L1_T12_Flex_Ext	L1_T12_Lat_Bending	L1_T12_axial_rotation	Abs_r3	Abs_r2	Abs_r1	Abs_t1	Abs_t2	neck_flexion	neck_bending	neck_rotation	arm_flex_r	arm_add_r	arm_rot_r	elbow_flex_r	pro_sup_r	wrist_flex_r	wrist_dev_r	arm_flex_l	arm_add_l	arm_rot_l	elbow_flex_l	pro_sup_l	wrist_flex_l	wrist_dev_l
0.000000	2.018382	-2.728014	99.537270	0.194187	0.753098	0.644788	-0.479145	1.945332	-3.532356	0.838331	0.014632	12.391024	-15.270636	0.000000	1.243804	-3.077694	12.476101	2.100350	0.036658	21.603003	-6.109598	0.000000	0.214329	0.708443	-1.259969	0.398031	0.942229	-1.338718	0.352122	1.722508	-1.338718	0.244957	1.722508	-1.102473	0.199026	1.444656	-1.023725	0.122468	1.097378	-0.944977	1.530933	8.014046	-7.007572	0.000000	0.000000	17.826476	-1.861180	7.695024	27.653962	-10.110837	92.666821	39.954258	27.531060	8.231104	-4.616995	20.011931	-4.532078	69.969999	36.768454	18.695302	5.220360	2.436535
0.016949	1.692355	-2.823960	99.228435	0.194961	0.752642	0.645400	-0.204768	1.566993	-3.128277	1.177722	0.020555	12.244942	-15.428028	0.000000	1.352032	-2.766357	11.426220	2.556679	0.044622	21.915928	-5.055413	0.000000	0.210531	0.662480	-1.248829	0.390978	0.881099	-1.326880	0.345882	1.610755	-1.326880	0.240616	1.610755	-1.092725	0.195499	1.350930	-1.014673	0.120298	1.026182	-0.936621	1.503805	7.494110	-6.945610	0.000000	0.000000	17.894877	-1.575398	7.685511	27.630358	-9.907737	93.265891	39.700419	30.795912	7.914097	-5.065956	20.289697	-4.830367	71.318992	36.572824	26.540705	5.675588	1.056717
0.033898	1.381362	-2.923583	98.929017	0.195681	0.752216	0.646014	0.029663	1.214030	-2.717714	1.449257	0.025294	12.102887	-15.592951	0.000000	1.466968	-2.471223	10.373912	2.925996	0.051068	22.241030	-3.947460	0.000000	0.207761	0.619155	-1.229971	0.385832	0.823476	-1.306844	0.341330	1.505414	-1.306844	0.237450	1.505414	-1.076225	0.192926	1.262581	-0.999352	0.118714	0.959071	-0.922478	1.484013	7.004008	-6.840731	0.000000	0.000000	17.977907	-1.323436	7.661058	27.585753	-9.742579	93.593038	39.522733	33.284772	7.723645	-5.334561	20.521752	-5.111204	72.338261	36.472434	32.709537	6.092383	0.041455
0.050847	1.085512	-3.025304	98.639976	0.196348	0.751820	0.646626	0.226729	0.885691	-2.303371	1.658532	0.028947	11.968256	-15.762956	0.000000	1.586370	-2.191912	9.334404	3.216762	0.056143	22.568906	-2.813802	0.000000	0.205881	0.578423	-1.204606	0.382342	0.769303	-1.279894	0.338242	1.406378	-1.279894	0.235302	1.406378	-1.054030	0.191181	1.179520	-0.978743	0.117641	0.895977	-0.903455	1.470589	6.543238	-6.699658	0.000000	0.000000	18.072343	-1.102729	7.624158	27.523869	-9.611211	93.682749	39.412475	35.088115	7.641305	-5.450572	20.712276	-5.375260	73.070718	36.456465	37.360824	6.476015	-0.651177
0.067797	0.804914	-3.127542	98.362269	0.196965	0.751454	0.647228	0.389010	0.581225	-1.887951	1.811143	0.031610	11.844446	-15.935594	0.000000	1.707995	-1.928048	8.322926	3.437437	0.059995	22.890152	-1.682500	0.000000	0.204758	0.540240	-1.173943	0.380256	0.718519	-1.247314	0.336397	1.313539	-1.247314	0.234018	1.313539	-1.027200	0.190138	1.101657	-0.953828	0.116999	0.836831	-0.880457	1.462565	6.111298	-6.529117	0.000000	0.000000	18.174963	-0.910715	7.577303	27.448431	-9.509481	93.569510	39.360918	36.296412	7.648635	-5.441746	20.865445	-5.623201	73.559280	36.514095	40.653593	6.831757	-1.063104
0.084746	0.539677	-3.228718	98.096854	0.197532	0.751117	0.647817	0.519086	0.299880	-1.474160	1.912685	0.033383	11.734854	-16.108415	0.000000	1.829602	-1.679250	7.354705	3.596481	0.062770	23.195366	-0.581616	0.000000	0.204255	0.504560	-1.139190	0.379322	0.671065	-1.210389	0.335570	1.226788	-1.210389	0.233443	1.226788	-0.996791	0.189671	1.028899	-0.925592	0.116711	0.781564	-0.854392	1.458972	5.707688	-6.335831	0.000000	0.000000	18.282545	-0.744830	7.522987	27.363161	-9.433236	93.287807	39.359339	37.000135	7.727193	-5.335842	20.985438	-5.855697	73.846859	36.634502	42.746871	7.164881	-1.236250
0.101695	0.289911	-3.327252	97.844691	0.198053	0.750810	0.648388	0.619539	0.040906	-1.064702	1.968754	0.034361	11.642875	-16.278970	0.000000	1.948947	-1.445142	6.444971	3.702356	0.064618	23.475144	0.460788	0.000000	0.204237	0.471341	-1.101556	0.379288	0.626884	-1.170403	0.335541	1.146018	-1.170403	0.233422	1.146018	-0.963862	0.189654	0.961159	-0.895014	0.116701	0.730107	-0.826167	1.458842	5.331904	-6.126524	0.000000	0.000000	18.391865	-0.602508	7.463703	27.271784	-9.378326	92.872127	39.399013	37.289757	7.858535	-5.160621	21.076432	-6.073416	73.976371	36.806865	43.799683	7.480660	-1.212541
0.118644	0.055725	-3.421564	97.606736	0.198528	0.750532	0.648934	0.692949	-0.196451	-0.662280	1.984946	0.034644	11.571907	-16.444809	0.000000	2.063788	-1.225344	5.608952	3.763521	0.065686	23.720084	1.416651	0.000000	0.204568	0.440537	-1.062251	0.379903	0.585914	-1.128642	0.336084	1.071122	-1.128642	0.233800	1.071122	-0.929470	0.189962	0.898343	-0.863079	0.116890	0.682392	-0.796688	1.461207	4.983445	-5.907922	0.000000	0.000000	18.499702	-0.481188	7.401942	27.178023	-9.340597	92.356957	39.471214	37.255750	8.024220	-4.943841	21.142605	-6.277027	73.990730	37.020362	43.971055	7.784365	-1.033900
0.135593	-0.162773	-3.510075	97.383949	0.198960	0.750284	0.649451	0.741897	-0.412939	-0.269598	1.966855	0.034328	11.525345	-16.603484	0.000000	2.171883	-1.019478	4.861876	3.788437	0.066121	23.920782	2.257911	0.000000	0.205112	0.412105	-1.022484	0.380914	0.548099	-1.086389	0.336979	1.001991	-1.086389	0.234423	1.001991	-0.894673	0.190467	0.840364	-0.830768	0.117201	0.638350	-0.766863	1.465098	4.661809	-5.686749	0.000000	0.000000	18.602832	-0.378303	7.340199	27.085602	-9.315897	91.776783	39.567217	36.988587	8.205805	-4.713262	21.188134	-6.467199	73.932850	37.264173	43.420015	8.081268	-0.742254
0.152542	-0.365473	-3.591204	97.177288	0.199351	0.750065	0.649933	0.768964	-0.609313	0.110638	1.920078	0.033512	11.506587	-16.752545	0.000000	2.270989	-0.827167	4.218972	3.785564	0.066071	24.067837	2.956506	0.000000	0.205735	0.385999	-0.983463	0.382071	0.513378	-1.044930	0.338002	0.938518	-1.044930	0.235135	0.938518	-0.860530	0.191046	0.787129	-0.799064	0.117557	0.597912	-0.737598	1.469546	4.366496	-5.469728	0.000000	0.000000	18.698034	-0.291292	7.280965	26.998243	-9.300075	91.166091	39.678297	36.578740	8.384847	-4.496642	21.217199	-6.644599	73.845645	37.527475	42.305589	8.376643	-0.379527
0.169492	-0.552265	-3.663372	96.987711	0.199701	0.749876	0.650376	0.776729	-0.786321	0.475725	1.850210	0.032292	11.519029	-16.889543	0.000000	2.358864	-0.648031	3.695469	3.763363	0.065683	24.151844	3.484374	0.000000	0.206300	0.362176	-0.946399	0.383121	0.481693	-1.005548	0.338931	0.880594	-1.005548	0.235781	0.880594	-0.828099	0.191571	0.738548	-0.768949	0.117880	0.561010	-0.709799	1.473584	4.097002	-5.263585	0.000000	0.000000	18.782085	-0.217589	7.226734	26.919670	-9.288978	90.559368	39.795730	36.116681	8.542904	-4.321742	21.233976	-6.809897	73.772029	37.799448	40.786802	8.675760	0.012356
0.186441	-0.735400	-3.720091	96.861756	0.199996	0.749738	0.650720	0.760925	-0.956456	0.821000	1.770806	0.030906	11.571241	-17.008894	0.000000	2.435815	-0.470674	3.303483	3.742452	0.065318	24.190046	3.953688	0.000000	0.207066	0.337161	-0.914639	0.384543	0.448424	-0.971804	0.340189	0.819774	-0.971804	0.236656	0.819774	-0.800309	0.192282	0.687539	-0.743144	0.118318	0.522263	-0.685979	1.479053	3.814035	-5.086948	0.000000	0.000000	18.836345	-0.128699	7.087220	26.844790	-9.281402	90.109526	39.890885	35.551601	8.729068	-4.297959	21.283113	-6.951758	73.970313	37.994621	40.095502	9.073522	0.170257
0.203390	-0.887241	-3.750610	96.759125	0.200242	0.749640	0.650985	0.717042	-1.092742	1.132471	1.667933	0.029111	11.695700	-17.103666	0.000000	2.474259	-0.318801	3.191026	3.739122	0.065260	24.050083	3.935113	0.000000	0.206396	0.316915	-0.892071	0.383298	0.421497	-0.947825	0.339088	0.770547	-0.947825	0.235890	0.770547	-0.780562	0.191659	0.646253	-0.724807	0.117935	0.490901	-0.669053	1.474266	3.585004	-4.961429	0.000000	0.000000	18.854773	-0.060521	6.999161	26.818906	-9.255119	89.826060	39.957692	35.254937	8.740142	-4.465057	21.317053	-7.085208	74.343156	38.184464	39.051807	9.477276	0.240459
0.220339	-1.016300	-3.757625	96.657023	0.200469	0.749576	0.651177	0.654659	-1.205400	1.425218	1.552569	0.027097	11.894527	-17.168997	0.000000	2.471444	-0.181851	3.375173	3.743872	0.065343	23.719652	3.378213	0.000000	0.204402	0.300324	-0.874315	0.379594	0.399431	-0.928960	0.335811	0.730207	-0.928960	0.233611	0.730207	-0.765026	0.189807	0.612420	-0.710381	0.116795	0.465202	-0.655736	1.460020	3.397323	-4.862678	0.000000	0.000000	18.840181	-0.018610	6.946349	26.815023	-9.212952	89.629763	39.996027	35.313445	8.620464	-4.737790	21.350780	-7.213445	74.941909	38.370777	37.651659	9.862076	0.219229
0.237288	-1.129536	-3.743779	96.550349	0.200674	0.749540	0.651314	0.581697	-1.303395	1.692938	1.438475	0.025106	12.160079	-17.203457	0.000000	2.431757	-0.051906	3.836369	3.752600	0.065495	23.223186	2.322026	0.000000	0.200886	0.286768	-0.862144	0.373065	0.381402	-0.916028	0.330036	0.697249	-0.916028	0.229593	0.697249	-0.754376	0.186543	0.584778	-0.700492	0.114786	0.444204	-0.646608	1.434908	3.243981	-4.794989	0.000000	0.000000	18.797936	0.022863	6.967284	26.828468	-9.152116	89.525052	39.998584	35.903898	8.365133	-5.201493	21.396313	-7.338412	75.777640	38.542483	35.967248	10.234755	0.071939
0.254237	-1.226362	-3.723606	96.433292	0.200856	0.749513	0.651418	0.516948	-1.389156	1.949162	1.334316	0.023288	12.459189	-17.219733	0.000000	2.378320	0.068338	4.440921	3.767587	0.065757	22.648602	0.992920	0.000000	0.197290	0.276331	-0.855334	0.366388	0.367520	-0.908793	0.324128	0.671871	-0.908793	0.225483	0.671871	-0.748418	0.183204	0.563494	-0.694959	0.112732	0.428037	-0.641501	1.409226	3.125912	-4.757113	0.000000	0.000000	18.744673	0.049565	7.054424	26.849069	-9.085910	89.472845	39.980469	37.107034	7.953518	-5.786503	21.429366	-7.452638	76.692541	38.679991	34.408049	10.610907	-0.177385
0.271186	-1.315672	-3.705916	96.312562	0.201017	0.749486	0.651515	0.472158	-1.472608	2.185191	1.250648	0.021828	12.759030	-17.224507	0.000000	2.328445	0.186035	5.100823	3.788085	0.066115	22.063001	-0.443469	0.000000	0.194180	0.267399	-0.854329	0.360612	0.355641	-0.907724	0.319019	0.650154	-0.907724	0.221928	0.650154	-0.747538	0.180316	0.545280	-0.694142	0.110955	0.414201	-0.640746	1.387009	3.024871	-4.751519	0.000000	0.000000	18.691389	0.078644	7.188545	26.868998	-9.014639	89.456854	39.944789	38.974960	7.430042	-6.469078	21.468806	-7.564273	77.686852	38.785928	33.122765	10.973099	-0.525153
0.288136	-1.402695	-3.698323	96.157846	0.201198	0.749453	0.651601	0.459904	-1.558776	2.435996	1.196217	0.020878	13.029868	-17.222038	0.000000	2.280476	0.302978	5.711837	3.790546	0.066158	21.505946	-1.859444	0.000000	0.191899	0.258901	-0.850811	0.356376	0.344338	-0.903987	0.315271	0.629491	-0.903987	0.219322	0.629491	-0.744460	0.178198	0.527950	-0.691284	0.109651	0.401037	-0.638108	1.370717	2.928736	-4.731955	0.000000	0.000000	18.653348	0.115975	7.329115	26.870809	-8.954570	89.439897	39.912236	41.571738	6.837584	-7.197295	21.506897	-7.662492	78.658276	38.847044	32.571165	11.327306	-0.948138
0.305085	-1.479952	-3.708021	95.969432	0.201401	0.749403	0.651706	0.489415	-1.639988	2.731288	1.170267	0.020425	13.230207	-17.245745	0.000000	2.252641	0.411493	6.254637	3.786914	0.066094	21.011884	-3.203155	0.000000	0.190600	0.251687	-0.845007	0.353963	0.334744	-0.897820	0.313136	0.611953	-0.897820	0.217836	0.611953	-0.739381	0.176991	0.513241	-0.686568	0.108909	0.389864	-0.633756	1.361434	2.847138	-4.699677	0.000000	0.000000	18.645116	0.162518	7.481757	26.861546	-8.913884	89.444035	39.900166	44.950931	6.134608	-7.964577	21.522434	-7.743884	79.481669	38.872648	33.018398	11.666278	-1.421211
0.322034	-1.543678	-3.743571	95.781861	0.201585	0.749325	0.651863	0.568072	-1.713107	3.015651	1.173232	0.020477	13.366451	-17.254492	0.000000	2.261997	0.506705	6.686438	3.784022	0.066044	20.599284	-4.344690	0.000000	0.191657	0.246282	-0.843724	0.355927	0.327555	-0.896457	0.314874	0.598809	-0.896457	0.219045	0.598809	-0.738259	0.177973	0.502218	-0.685526	0.109513	0.381490	-0.632793	1.368990	2.785987	-4.692540	0.000000	0.000000	18.658734	0.212967	7.672349	26.862236	-8.885499	89.547272	39.896853	48.959948	5.347280	-8.788917	21.511112	-7.815798	80.145980	38.884285	34.246541	11.979243	-1.885332
